<?xml version="1.0" standalone="no"?>
<!-- Generator: Adobe Fireworks 10, Export SVG Extension by Aaron Beall (http://fireworks.abeall.com) . Version: 0.6.1  -->
<!DOCTYPE svg PUBLIC "-//W3C//DTD SVG 1.1//EN" "http://www.w3.org/Graphics/SVG/1.1/DTD/svg11.dtd">
<svg id="f-b-logo-%u30DA%u30FC%u30B8%201" viewBox="0 0 100 100" style="background-color:#ffffff00" version="1.1"
	xmlns="http://www.w3.org/2000/svg" xmlns:xlink="http://www.w3.org/1999/xlink" xml:space="preserve"
	x="0px" y="0px" width="100px" height="100px"
>
	<g id="%u30EC%u30A4%u30E4%u30FC%201">
		<path id="%u6955%u5186%u5F62" d="M 5 18.8587 C 5 11.2047 11.2047 5 18.8587 5 C 26.5127 5 32.7174 11.2047 32.7174 18.8587 C 32.7174 26.5127 26.5127 32.7174 18.8587 32.7174 C 11.2047 32.7174 5 26.5127 5 18.8587 Z" fill="#006699"/>
		<path id="%u6955%u5186%u5F622" d="M 35.6413 18.8587 C 35.6413 11.2047 41.846 5 49.5 5 C 57.154 5 63.3587 11.2047 63.3587 18.8587 C 63.3587 26.5127 57.154 32.7174 49.5 32.7174 C 41.846 32.7174 35.6413 26.5127 35.6413 18.8587 Z" fill="#006699"/>
		<path id="%u6955%u5186%u5F623" d="M 5 49.5 C 5 41.846 11.2047 35.6413 18.8587 35.6413 C 26.5127 35.6413 32.7174 41.846 32.7174 49.5 C 32.7174 57.154 26.5127 63.3587 18.8587 63.3587 C 11.2047 63.3587 5 57.154 5 49.5 Z" fill="#006699"/>
		<path id="%u6955%u5186%u5F624" d="M 35.6413 49.5 C 35.6413 41.846 41.846 35.6413 49.5 35.6413 C 57.154 35.6413 63.3587 41.846 63.3587 49.5 C 63.3587 57.154 57.154 63.3587 49.5 63.3587 C 41.846 63.3587 35.6413 57.154 35.6413 49.5 Z" fill="#006699"/>
		<path id="%u6955%u5186%u5F625" d="M 5 80.1413 C 5 72.4873 11.2047 66.2826 18.8587 66.2826 C 26.5127 66.2826 32.7174 72.4873 32.7174 80.1413 C 32.7174 87.7953 26.5127 94 18.8587 94 C 11.2047 94 5 87.7953 5 80.1413 Z" fill="#006699"/>
		<path id="%u6955%u5186%u5F626" d="M 35.6413 80.1413 C 35.6413 72.4873 41.846 66.2826 49.5 66.2826 C 57.154 66.2826 63.3587 72.4873 63.3587 80.1413 C 63.3587 87.7953 57.154 94 49.5 94 C 41.846 94 35.6413 87.7953 35.6413 80.1413 Z" fill="#006699"/>
		<path id="%u6955%u5186%u5F627" d="M 66.2826 80.1413 C 66.2826 72.4873 72.4873 66.2826 80.1413 66.2826 C 87.7953 66.2826 94 72.4873 94 80.1413 C 94 87.7953 87.7953 94 80.1413 94 C 72.4873 94 66.2826 87.7953 66.2826 80.1413 Z" fill="#006699"/>
	</g>
</svg>